<svg xmlns="http://www.w3.org/2000/svg" xmlns:xlink="http://www.w3.org/1999/xlink" width="60" height="60" viewBox="0 0 60 60">
    <defs>
        <path id="prefix__a" d="M16.637 10.667c-.003-.897-.1-1.79-.291-2.667h2.44c-.125-.366-.277-.722-.454-1.067h-2.271c-.427-1.402-1.09-2.725-1.96-3.913-.555-.23-1.135-.4-1.728-.507 1.192 1.26 2.092 2.759 2.637 4.394h-3.654V2.4h-1.017v4.513H6.685c.546-1.638 1.448-3.139 2.644-4.4-.59.105-1.168.273-1.722.5-.874 1.183-1.54 2.502-1.973 3.9H3.349c-.18.351-.334.714-.46 1.087h2.46c-.19.877-.289 1.77-.291 2.667.002.98.115 1.957.339 2.913h-2.4c.14.374.308.737.501 1.087h2.19c.415 1.277 1.03 2.482 1.824 3.573.568.24 1.161.416 1.77.527-1.107-1.187-1.958-2.582-2.502-4.1h3.566v4.226h1.017v-4.226h3.552c-.546 1.519-1.4 2.914-2.508 4.1.61-.115 1.206-.296 1.776-.54.792-1.087 1.407-2.288 1.824-3.56h2.17c.192-.344.36-.7.501-1.067h-2.407c.234-.961.357-1.945.366-2.933zM10.34 13.58H6.447c-.477-1.835-.498-3.756-.06-5.6h3.952v5.6zm4.908 0h-3.891V8h3.952c.195.876.29 1.77.285 2.667.006.981-.11 1.96-.346 2.913zM10.847 0C4.857 0 0 4.776 0 10.667c0 5.89 4.857 10.666 10.847 10.666 5.991 0 10.848-4.775 10.848-10.666 0-2.83-1.143-5.542-3.177-7.543-2.035-2-4.794-3.124-7.67-3.124zm0 20c-5.242 0-9.491-4.179-9.491-9.333 0-5.155 4.25-9.334 9.491-9.334 5.242 0 9.492 4.179 9.492 9.334 0 2.475-1 4.849-2.78 6.6-1.78 1.75-4.194 2.733-6.712 2.733z"/>
    </defs>
    <g fill="none" fill-rule="evenodd">
        <g opacity="1" transform="matrix(1 0 0 -1 0 60) translate(19.661 19.333)">
            <mask id="prefix__b" fill="#fff">
                <use xlink:href="#prefix__a"/>
            </mask>
            <use fill="#000" fill-rule="nonzero" xlink:href="#prefix__a"/>
            <g fill="#FFF" mask="url(#prefix__b)">
                <path d="M0 0H24.407V24H0z" transform="translate(-1.356 -1.333)"/>
            </g>
        </g>
        <path fill="#FFF" fill-opacity="0" d="M59 10H60V50H59z" transform="matrix(1 0 0 -1 0 60)"/>
    </g>
</svg>
