<svg width="170" height="40" viewBox="0 0 170 40" fill="none" xmlns="http://www.w3.org/2000/svg">
<path d="M46.8011 22.6159C46.0614 22.6159 45.345 22.5112 44.6514 22.3018C43.9668 22.0923 43.4236 21.8146 43.022 21.4686L43.638 20.0891C44.0307 20.3987 44.5099 20.6537 45.0759 20.854C45.6508 21.0452 46.2258 21.1408 46.8011 21.1408C47.5129 21.1408 48.0424 21.027 48.3891 20.7993C48.7453 20.5717 48.9233 20.2712 48.9233 19.8979C48.9233 19.6247 48.8228 19.4016 48.622 19.2286C48.4302 19.0465 48.1839 18.9054 47.8827 18.8052C47.5815 18.705 47.1706 18.5912 46.6503 18.4637C45.9199 18.2907 45.3267 18.1177 44.8704 17.9447C44.4231 17.7717 44.035 17.5031 43.7066 17.1388C43.3872 16.7655 43.2274 16.2647 43.2274 15.6364C43.2274 15.1083 43.3689 14.6302 43.6519 14.2023C43.9439 13.7652 44.3773 13.4192 44.9526 13.1642C45.5368 12.9093 46.2487 12.7818 47.0884 12.7818C47.6726 12.7818 48.2476 12.8546 48.8136 13.0003C49.3796 13.146 49.868 13.3554 50.2786 13.6286L49.7173 15.0081C49.2974 14.7623 48.8593 14.5756 48.403 14.4481C47.9463 14.3206 47.5036 14.2569 47.0748 14.2569C46.3719 14.2569 45.847 14.3753 45.5001 14.612C45.1624 14.8488 44.9937 15.1629 44.9937 15.5544C44.9937 15.8276 45.0895 16.0507 45.281 16.2237C45.4818 16.3967 45.733 16.5333 46.0343 16.6335C46.3355 16.7337 46.7461 16.8475 47.2663 16.9749C47.9785 17.1388 48.5627 17.3119 49.019 17.494C49.4753 17.667 49.8634 17.9356 50.1829 18.2998C50.5113 18.6641 50.6756 19.1558 50.6756 19.7749C50.6756 20.3031 50.5298 20.7811 50.2375 21.2091C49.9545 21.6371 49.5211 21.9785 48.9368 22.2335C48.3526 22.4884 47.6408 22.6159 46.8011 22.6159ZM61.1076 22.4793L61.094 16.1418L57.9449 21.3866H57.1505L54.0014 16.2237V22.4793H52.3037V12.9183H53.7688L57.575 19.2559L61.313 12.9183H62.7781L62.7917 22.4793H61.1076ZM71.4597 20.2666H66.6675L65.7228 22.4793H63.8882L68.2009 12.9183H69.9535L74.2801 22.4793H72.418L71.4597 20.2666ZM70.8708 18.8735L69.0634 14.694L67.27 18.8735H70.8708ZM81.6328 22.4793L79.675 19.6793C79.5928 19.6884 79.4696 19.693 79.3055 19.693H77.1419V22.4793H75.3621V12.9183H79.3055C80.136 12.9183 80.8571 13.0549 81.4688 13.3281C82.0895 13.6013 82.564 13.9928 82.8928 14.5027C83.2212 15.0127 83.3855 15.6182 83.3855 16.3193C83.3855 17.0387 83.2076 17.6579 82.8517 18.1769C82.5047 18.6959 82.0027 19.0829 81.3455 19.3379L83.5499 22.4793H81.6328ZM81.5921 16.3193C81.5921 15.7093 81.3913 15.2403 80.9896 14.9125C80.588 14.5847 79.9991 14.4208 79.2233 14.4208H77.1419V18.2315H79.2233C79.9991 18.2315 80.588 18.0676 80.9896 17.7398C81.3913 17.4029 81.5921 16.9294 81.5921 16.3193ZM87.0506 14.4208H83.874V12.9183H92.0071V14.4208H88.8305V22.4793H87.0506V14.4208Z" fill="#B1CD49"/>
<path d="M99.422 20.2666H94.6299L93.6855 22.4793H91.8506L96.1636 12.9183H97.9159L102.243 22.4793H100.381L99.422 20.2666ZM98.8335 18.8735L97.0261 14.694L95.2324 18.8735H98.8335ZM111.841 12.9183V22.4793H110.376L105.091 16.0052V22.4793H103.325V12.9183H104.79L110.075 19.3925V12.9183H111.841ZM120.488 20.2666H115.696L114.752 22.4793H112.917L117.23 12.9183H118.982L123.309 22.4793H121.447L120.488 20.2666ZM119.9 18.8735L118.092 14.694L116.299 18.8735H119.9ZM124.391 12.9183H126.171V20.9769H131.182V22.4793H124.391V12.9183ZM135.582 19.1057V22.4793H133.802V19.133L130.037 12.9183H131.94L134.747 17.5759L137.581 12.9183H139.334L135.582 19.1057ZM142.173 14.4208H138.997V12.9183H147.13V14.4208H143.953V22.4793H142.173V14.4208ZM148.328 12.9183H150.109V22.4793H148.328V12.9183ZM157 22.6159C156.032 22.6159 155.156 22.4065 154.371 21.9876C153.595 21.5597 152.984 20.9723 152.537 20.2257C152.098 19.479 151.879 18.6367 151.879 17.6988C151.879 16.761 152.103 15.9187 152.55 15.172C152.998 14.4254 153.609 13.8426 154.385 13.4237C155.17 12.9958 156.046 12.7818 157.014 12.7818C157.799 12.7818 158.515 12.9183 159.163 13.1915C159.811 13.4647 160.359 13.8608 160.806 14.3798L159.656 15.4588C158.962 14.7122 158.109 14.3388 157.096 14.3388C156.439 14.3388 155.85 14.4845 155.33 14.7759C154.809 15.0582 154.403 15.4543 154.111 15.9642C153.819 16.4741 153.673 17.0523 153.673 17.6988C153.673 18.3454 153.819 18.9236 154.111 19.4335C154.403 19.9434 154.809 20.3441 155.33 20.6354C155.85 20.9177 156.439 21.0588 157.096 21.0588C158.109 21.0588 158.962 20.681 159.656 19.9252L160.806 21.0179C160.359 21.5369 159.807 21.933 159.15 22.2062C158.502 22.4793 157.785 22.6159 157 22.6159ZM165.293 22.6159C164.553 22.6159 163.837 22.5112 163.143 22.3018C162.458 22.0923 161.915 21.8146 161.513 21.4686L162.13 20.0891C162.522 20.3987 163.001 20.6537 163.567 20.854C164.142 21.0452 164.718 21.1408 165.293 21.1408C166.004 21.1408 166.534 21.027 166.881 20.7993C167.237 20.5717 167.415 20.2712 167.415 19.8979C167.415 19.6247 167.314 19.4016 167.114 19.2286C166.922 19.0465 166.675 18.9054 166.374 18.8052C166.073 18.705 165.662 18.5912 165.142 18.4637C164.412 18.2907 163.818 18.1177 163.362 17.9447C162.915 17.7717 162.527 17.5031 162.198 17.1388C161.879 16.7655 161.719 16.2647 161.719 15.6364C161.719 15.1083 161.86 14.6302 162.143 14.2023C162.435 13.7652 162.869 13.4192 163.444 13.1642C164.028 12.9093 164.74 12.7818 165.58 12.7818C166.164 12.7818 166.739 12.8546 167.305 13.0003C167.871 13.146 168.36 13.3554 168.77 13.6286L168.209 15.0081C167.789 14.7623 167.351 14.5756 166.894 14.4481C166.438 14.3206 165.995 14.2569 165.566 14.2569C164.863 14.2569 164.339 14.3753 163.992 14.612C163.654 14.8488 163.485 15.1629 163.485 15.5544C163.485 15.8276 163.581 16.0507 163.773 16.2237C163.974 16.3967 164.225 16.5333 164.526 16.6335C164.827 16.7337 165.238 16.8475 165.758 16.9749C166.47 17.1388 167.054 17.3119 167.511 17.494C167.967 17.667 168.355 17.9356 168.674 18.2998C169.003 18.6641 169.167 19.1558 169.167 19.7749C169.167 20.3031 169.021 20.7811 168.729 21.2091C168.446 21.6371 168.013 21.9785 167.428 22.2335C166.844 22.4884 166.132 22.6159 165.293 22.6159Z" fill="#1C4A9D"/>
<path d="M17.2748 25.6392L12.04 24.8559L6.73979 14.0854C6.60892 13.8243 6.41261 13.6937 6.08544 13.6937H0.719783C0.327175 13.6937 0 14.0201 0 14.4118C0 14.8034 0.327175 15.1298 0.719783 15.1298H5.6274L10.8622 25.8351C10.9931 26.0309 11.1894 26.1614 11.3857 26.2267L17.6674 27.1406C17.9946 27.2058 18.3872 26.9448 18.4527 26.6184L18.8452 24.9212L18.1255 22.1796L17.2748 25.6392ZM35.073 17.8714C34.6807 17.7409 34.288 17.9367 34.2224 18.3283L31.6051 26.8142L28.9877 27.7281L25.5851 12.323L24.669 14.6729L27.7444 28.7725C27.8098 28.9683 27.9407 29.1641 28.0716 29.2294C28.2025 29.2947 28.2679 29.2947 28.3987 29.2947C28.4642 29.2947 28.5296 29.2947 28.5951 29.2294L32.3249 27.9892C32.5212 27.9239 32.7175 27.7281 32.7829 27.5322L35.5313 18.72C35.6619 18.3936 35.4657 18.0019 35.073 17.8714ZM23.8837 4.42459C23.8183 4.09821 23.5566 3.90237 23.2294 3.90237C22.9022 3.90237 22.6405 4.09821 22.575 4.42459L18.9107 19.3728L19.6959 22.1143L23.2294 7.68836L24.2109 12.1924L25.127 9.84247L23.8837 4.42459Z" fill="#B1CD49"/>
<path d="M6.67436 20.8088L3.2063 19.9602L1.7013 15.1951H0.78521C0.458034 15.1951 0.130859 14.934 0.130859 14.6076C0.130859 14.6729 0.130859 14.6729 0.130859 14.7382L2.02847 20.7435C2.09391 21.0046 2.29021 21.1352 2.55195 21.2005L7.00153 22.3102C7.06695 22.3102 7.1324 22.3102 7.19784 22.3102C7.45957 22.3102 7.78675 22.1143 7.8522 21.8532L8.37565 20.4172L7.52502 18.6547L6.67436 20.8088ZM17.9946 4.16344L11.9091 6.4481C11.7129 6.51339 11.582 6.64394 11.5165 6.83977L8.04847 16.7617L8.89914 18.5241L12.6944 7.62308L17.9292 5.6648L20.8083 11.2133L21.3318 9.18969L18.8453 4.48982C18.7144 4.16344 18.3218 4.0329 17.9946 4.16344ZM35.5311 18.3283L33.5027 11.0174C33.4371 10.8869 33.3718 10.7563 33.2409 10.691L27.4827 6.12172C27.2863 5.99118 27.0901 5.92592 26.8938 5.99118C26.6974 6.05647 26.5011 6.18701 26.4357 6.38285L25.0616 9.84245L24.1455 12.1924L23.622 13.4979L22.3133 11.0174L21.7898 13.041L23.0985 15.5215C23.2294 15.7825 23.4911 15.9131 23.7529 15.9131C24.0146 15.9131 24.2763 15.7173 24.3418 15.4562L24.9961 13.759L25.5196 12.3229L27.2863 7.75362L32.1286 11.6049L34.0263 18.4589L34.0916 18.263C34.2225 17.8714 34.6152 17.6756 34.9422 17.8061C35.204 17.8714 35.3349 18.1325 35.4002 18.3283C35.5311 18.3936 35.5311 18.3283 35.5311 18.3283Z" fill="#4A69A2"/>
<path d="M8.5717 7.68833C8.37539 7.62304 8.11366 7.68833 7.9828 7.81888L0.32691 13.8895L0.261475 13.9548C0.392344 13.8242 0.588649 13.759 0.71952 13.759H2.68257L8.04822 9.45078L9.42237 12.6493L10.0767 10.691L8.89888 8.01468C8.89888 7.88414 8.76801 7.75359 8.5717 7.68833ZM27.4824 21.2004L27.8096 22.5712L33.6988 19.7644L34.0915 18.4588L33.9606 18.0672L27.4824 21.2004ZM25.2576 22.2448C25.0613 22.3754 24.865 22.5712 24.865 22.767L23.36 35.6916L19.2376 20.7435L18.845 19.3074L17.34 13.8895C17.2745 13.6284 17.0783 13.4326 16.7511 13.3673C16.4893 13.3021 16.2276 13.4326 16.0313 13.6937L13.2176 17.8061L10.9274 12.5187L10.273 14.477L12.4978 19.5685C12.6287 19.8296 12.825 19.9602 13.0867 19.9602C13.3485 19.9602 13.6102 19.8949 13.7411 19.6338L16.4239 15.7173L22.9674 39.4777C23.0328 39.804 23.36 40 23.6217 40H23.6872C24.0144 40 24.2761 39.7388 24.3415 39.4122L26.2391 23.3545L26.5663 23.224L26.2391 21.7879L25.2576 22.2448ZM34.3529 18.0672C34.4185 18.0019 34.4838 17.9366 34.5494 17.8713C34.4838 17.9366 34.3529 18.0019 34.3529 18.0672Z" fill="#9C9EA0"/>
</svg>
